<svg id="Layer_1" data-name="Layer 1" xmlns="http://www.w3.org/2000/svg" viewBox="0 0 452.7 58.35"><defs><style>.cls-1{font-size:16px;}.cls-1,.cls-18{fill:#bb0e3d;}.cls-1,.cls-7{font-family:Montserrat-Bold, Montserrat;font-weight:700;}.cls-2{letter-spacing:-0.03em;}.cls-3{letter-spacing:-0.01em;}.cls-4{letter-spacing:-0.01em;}.cls-5{letter-spacing:-0.01em;}.cls-6{letter-spacing:0em;}.cls-7{font-size:20px;}.cls-17,.cls-7{fill:#606060;}.cls-8{letter-spacing:-0.02em;}.cls-9{letter-spacing:-0.02em;}.cls-10{letter-spacing:-0.01em;}.cls-11{letter-spacing:0em;}.cls-12{letter-spacing:0.01em;}.cls-13{letter-spacing:0em;}.cls-14{letter-spacing:0em;}.cls-15{letter-spacing:-0.01em;}.cls-16{letter-spacing:-0.05em;}.cls-19{fill:#fff;}</style></defs><title>Artboard 1</title><text class="cls-1" transform="translate(98.72 11.47)">N<tspan class="cls-2" x="12.93" y="0">A</tspan><tspan x="24.62" y="0">TIONAL </tspan><tspan class="cls-3" x="92.64" y="0">C</tspan><tspan x="104.14" y="0">ANCER IN</tspan><tspan class="cls-4" x="186.25" y="0">S</tspan><tspan x="196.3" y="0">TI</tspan><tspan class="cls-5" x="211.44" y="0">TU</tspan><tspan class="cls-6" x="233.55" y="0">TE</tspan></text><text class="cls-7" transform="translate(98.26 33.27)"><tspan class="cls-8">C</tspan><tspan x="14.28" y="0">en</tspan><tspan class="cls-9" x="40.72" y="0">t</tspan><tspan x="49.08" y="0">er </tspan><tspan class="cls-10" x="75.98" y="0">f</tspan><tspan class="cls-11" x="83.58" y="0">or Bio</tspan><tspan class="cls-12" x="145.38" y="0">m</tspan><tspan class="cls-11" x="166.48" y="0">edical In</tspan><tspan class="cls-10" x="255.18" y="0">f</tspan><tspan class="cls-11" x="262.78" y="0">o</tspan><tspan class="cls-13" x="275.88" y="0">r</tspan><tspan class="cls-14" x="284.42" y="0">matics</tspan><tspan x="0" y="21">&amp; In</tspan><tspan class="cls-15" x="40.6" y="21">f</tspan><tspan x="48.2" y="21">o</tspan><tspan class="cls-13" x="61.3" y="21">r</tspan><tspan x="69.84" y="21">mation </tspan><tspan class="cls-16" x="150.46" y="21">T</tspan><tspan x="161.72" y="21">e</tspan><tspan class="cls-13" x="174.34" y="21">c</tspan><tspan x="186.08" y="21">h</tspan><tspan class="cls-12" x="199.9" y="21">n</tspan><tspan class="cls-11" x="213.84" y="21">ology</tspan></text><path class="cls-17" d="M75.09,27.27l-15-27H5.86A5.78,5.78,0,0,0,.09,6.06V48.49a5.77,5.77,0,0,0,5.77,5.78H60.09Z"/><path class="cls-18" d="M73.59,3.09a5.84,5.84,0,0,0-5-2.82H64.09l15.2,27-15.2,27h4.49a5.83,5.83,0,0,0,5-2.81l13.5-24.19Z"/><rect class="cls-19" x="32.09" y="15.27" width="4" height="24"/><polygon class="cls-19" points="24.09 15.27 24.09 32.87 13.09 15.27 9.09 15.27 9.09 39.27 13.09 39.27 13.09 21.67 24.09 39.27 28.09 39.27 28.09 15.27 24.09 15.27"/><polygon class="cls-19" points="55.09 15.27 55.09 25.27 44.09 25.27 44.09 15.27 40.09 15.27 40.09 39.27 44.09 39.27 44.09 29.27 55.09 29.27 55.09 39.27 59.09 39.27 59.09 15.27 55.09 15.27"/></svg>