<svg id="Layer_1" data-name="Layer 1" xmlns="http://www.w3.org/2000/svg" viewBox="0 0 1342.58 172.76"><defs><style>.cls-1{fill:#bb0e3d;}.cls-2{fill:#606060;}.cls-3{fill:#fff;}</style></defs><title>Untitled-1</title><path class="cls-1" d="M339,215.44v33.23h-6.31L316.1,228.49v20.17h-7.6V215.44h6.36l16.52,20.17V215.44Z" transform="translate(-12 -214.87)"/><path class="cls-1" d="M368.74,241.55H353.32l-2.94,7.12h-7.88l14.81-33.23h7.6l14.86,33.23h-8.07Zm-2.42-5.84L361.05,223l-5.27,12.72Z" transform="translate(-12 -214.87)"/><path class="cls-1" d="M388.44,221.7H377.81v-6.27h29v6.27H396.13v27h-7.69Z" transform="translate(-12 -214.87)"/><path class="cls-1" d="M410.89,215.44h7.69v33.23h-7.69Z" transform="translate(-12 -214.87)"/><path class="cls-1" d="M424.37,232.05c0-9.87,7.69-17.18,18.18-17.18s18.18,7.26,18.18,17.18-7.74,17.18-18.18,17.18S424.37,241.93,424.37,232.05Zm28.58,0c0-6.31-4.46-10.63-10.4-10.63s-10.4,4.32-10.4,10.63,4.46,10.63,10.4,10.63S452.94,238.37,452.94,232.05Z" transform="translate(-12 -214.87)"/><path class="cls-1" d="M497,215.44v33.23h-6.31l-16.57-20.17v20.17h-7.6V215.44h6.36l16.52,20.17V215.44Z" transform="translate(-12 -214.87)"/><path class="cls-1" d="M526.75,241.55H511.32l-2.94,7.12H500.5l14.81-33.23h7.6l14.86,33.23h-8.07Zm-2.42-5.84L519.06,223l-5.27,12.72Z" transform="translate(-12 -214.87)"/><path class="cls-1" d="M541.22,215.44h7.69v27h16.66v6.27H541.22Z" transform="translate(-12 -214.87)"/><path class="cls-1" d="M581.23,232.05c0-10,7.69-17.18,18-17.18,5.74,0,10.54,2.09,13.67,5.89L608,225.31a10.69,10.69,0,0,0-8.35-3.89,10.63,10.63,0,0,0,0,21.27,10.59,10.59,0,0,0,8.35-3.94l4.94,4.56c-3.13,3.85-7.93,5.93-13.72,5.93C588.92,249.24,581.23,242.07,581.23,232.05Z" transform="translate(-12 -214.87)"/><path class="cls-1" d="M639.33,241.55H623.9L621,248.67h-7.88l14.81-33.23h7.6l14.86,33.23h-8.07Zm-2.42-5.84L631.64,223l-5.27,12.72Z" transform="translate(-12 -214.87)"/><path class="cls-1" d="M684.28,215.44v33.23H678L661.4,228.49v20.17h-7.6V215.44h6.36l16.52,20.17V215.44Z" transform="translate(-12 -214.87)"/><path class="cls-1" d="M690.06,232.05c0-10,7.69-17.18,18-17.18,5.74,0,10.54,2.09,13.67,5.89l-4.94,4.56a10.69,10.69,0,0,0-8.35-3.89,10.63,10.63,0,0,0,0,21.27,10.59,10.59,0,0,0,8.35-3.94l4.94,4.56c-3.13,3.85-7.93,5.93-13.72,5.93C697.75,249.24,690.06,242.07,690.06,232.05Z" transform="translate(-12 -214.87)"/><path class="cls-1" d="M752.67,242.5v6.17H726.94V215.44h25.11v6.17H734.59v7.22H750v6H734.59v7.69Z" transform="translate(-12 -214.87)"/><path class="cls-1" d="M780,248.67l-6.41-9.26h-7.07v9.26h-7.69V215.44h14.38c8.88,0,14.43,4.6,14.43,12.06A10.8,10.8,0,0,1,780.77,238l7.45,10.68Zm-7.21-27h-6.27v11.58h6.27c4.7,0,7.07-2.18,7.07-5.79S777.45,221.7,772.75,221.7Z" transform="translate(-12 -214.87)"/><path class="cls-1" d="M807.11,215.44h7.69v33.23h-7.69Z" transform="translate(-12 -214.87)"/><path class="cls-1" d="M853.15,215.44v33.23h-6.31l-16.57-20.17v20.17h-7.59V215.44H829l16.52,20.17V215.44Z" transform="translate(-12 -214.87)"/><path class="cls-1" d="M858.41,245.39,861,239.6a19.54,19.54,0,0,0,11,3.47c4.56,0,6.41-1.52,6.41-3.56,0-6.22-19.32-1.95-19.32-14.29,0-5.65,4.56-10.35,14-10.35a22.29,22.29,0,0,1,11.54,2.94l-2.37,5.84A18.77,18.77,0,0,0,873,221c-4.56,0-6.31,1.71-6.31,3.8,0,6.12,19.32,1.9,19.32,14.1,0,5.55-4.6,10.3-14.1,10.3C866.67,249.24,861.36,247.67,858.41,245.39Z" transform="translate(-12 -214.87)"/><path class="cls-1" d="M897.71,221.7H887.08v-6.27h29v6.27H905.41v27h-7.69Z" transform="translate(-12 -214.87)"/><path class="cls-1" d="M920.17,215.44h7.69v33.23h-7.69Z" transform="translate(-12 -214.87)"/><path class="cls-1" d="M942.62,221.7H932v-6.27h29v6.27H950.31v27h-7.69Z" transform="translate(-12 -214.87)"/><path class="cls-1" d="M964.21,234V215.44h7.69v18.32c0,6.31,2.75,8.92,7.41,8.92s7.41-2.61,7.41-8.92V215.44h7.59V234c0,9.78-5.6,15.19-15,15.19S964.21,243.83,964.21,234Z" transform="translate(-12 -214.87)"/><path class="cls-1" d="M1008.21,221.7H997.58v-6.27h29v6.27H1015.9v27h-7.69Z" transform="translate(-12 -214.87)"/><path class="cls-1" d="M1056.39,242.5v6.17h-25.73V215.44h25.11v6.17H1038.3v7.22h15.43v6H1038.3v7.69Z" transform="translate(-12 -214.87)"/><path class="cls-2" d="M305.53,292.59c0-12.52,9.61-21.48,22.54-21.48,7.18,0,13.17,2.61,17.09,7.36l-6.17,5.7a13.36,13.36,0,0,0-10.44-4.86c-7.77,0-13.29,5.46-13.29,13.29s5.52,13.29,13.29,13.29A13.23,13.23,0,0,0,339,301l6.17,5.7c-3.92,4.81-9.91,7.42-17.15,7.42C315.14,314.07,305.53,305.11,305.53,292.59Z" transform="translate(-12 -214.87)"/><path class="cls-2" d="M380.93,300H356.79c.89,4,4.27,6.41,9.14,6.41a10.82,10.82,0,0,0,8-3.08l4.92,5.34c-3,3.38-7.42,5.16-13.17,5.16-11,0-18.21-6.94-18.21-16.43s7.3-16.43,17-16.43c9.37,0,16.61,6.29,16.61,16.55C381.11,298.23,381,299.23,380.93,300Zm-24.26-5.4h15.72a8,8,0,0,0-15.72,0Z" transform="translate(-12 -214.87)"/><path class="cls-2" d="M419.91,295.08v18.27h-9.25V296.5c0-5.16-2.37-7.53-6.47-7.53-4.45,0-7.65,2.73-7.65,8.6v15.78h-9.25V281.44h8.84v3.74A14,14,0,0,1,406.68,281C414.21,281,419.91,285.35,419.91,295.08Z" transform="translate(-12 -214.87)"/><path class="cls-2" d="M448.86,311.81a13.23,13.23,0,0,1-7.53,2c-7.53,0-11.92-3.86-11.92-11.45V289.27h-4.92v-7.12h4.92v-7.77h9.25v7.77h7.95v7.12h-7.95v13c0,2.73,1.48,4.21,4,4.21a6.24,6.24,0,0,0,3.74-1.19Z" transform="translate(-12 -214.87)"/><path class="cls-2" d="M484.16,300H460c.89,4,4.27,6.41,9.14,6.41a10.82,10.82,0,0,0,8-3.08l4.92,5.34c-3,3.38-7.42,5.16-13.17,5.16-11,0-18.21-6.94-18.21-16.43S458,281,467.73,281c9.37,0,16.61,6.29,16.61,16.55C484.34,298.23,484.22,299.23,484.16,300Zm-24.26-5.4h15.72a8,8,0,0,0-15.72,0Z" transform="translate(-12 -214.87)"/><path class="cls-2" d="M510.33,281v8.54c-.77-.06-1.36-.12-2.08-.12-5.1,0-8.48,2.79-8.48,8.9v15.07h-9.25V281.44h8.84v4.21C501.61,282.56,505.4,281,510.33,281Z" transform="translate(-12 -214.87)"/><path class="cls-2" d="M543,282.15h8.19v7.12h-7.95v24.09H534V289.27h-4.92v-7.12H534v-1.42c0-7.18,4.39-11.87,12.34-11.87a13.12,13.12,0,0,1,7.06,1.72l-2.43,6.7a6.48,6.48,0,0,0-3.74-1.13c-2.73,0-4.21,1.48-4.21,4.63Z" transform="translate(-12 -214.87)"/><path class="cls-2" d="M553,297.39c0-9.61,7.42-16.43,17.56-16.43s17.5,6.82,17.5,16.43-7.36,16.43-17.5,16.43S553,307,553,297.39Zm25.69,0c0-5.52-3.5-8.84-8.13-8.84s-8.19,3.32-8.19,8.84,3.56,8.84,8.19,8.84S578.73,302.91,578.73,297.39Z" transform="translate(-12 -214.87)"/><path class="cls-2" d="M614.09,281v8.54c-.77-.06-1.36-.12-2.08-.12-5.1,0-8.48,2.79-8.48,8.9v15.07h-9.25V281.44h8.84v4.21C605.37,282.56,609.17,281,614.09,281Z" transform="translate(-12 -214.87)"/><path class="cls-2" d="M675.38,302c0,7.18-5.7,11.33-16.61,11.33H637.29V271.83h20.29c10.38,0,15.72,4.33,15.72,10.8a10,10,0,0,1-5.52,9.14A10.26,10.26,0,0,1,675.38,302Zm-28.54-23v9.79h9.55c4.69,0,7.24-1.66,7.24-4.92s-2.55-4.86-7.24-4.86Zm18.87,22c0-3.5-2.67-5.16-7.65-5.16H646.84v10.26h11.21C663,306.12,665.71,304.57,665.71,301Z" transform="translate(-12 -214.87)"/><path class="cls-2" d="M680.9,271.83c0-2.91,2.31-5.16,5.75-5.16s5.75,2.14,5.75,5c0,3.08-2.31,5.34-5.75,5.34S680.9,274.73,680.9,271.83Zm1.13,9.61h9.25v31.92H682Z" transform="translate(-12 -214.87)"/><path class="cls-2" d="M697.51,297.39c0-9.61,7.42-16.43,17.56-16.43s17.5,6.82,17.5,16.43-7.36,16.43-17.5,16.43S697.51,307,697.51,297.39Zm25.69,0c0-5.52-3.5-8.84-8.13-8.84s-8.19,3.32-8.19,8.84,3.56,8.84,8.19,8.84S723.2,302.91,723.2,297.39Z" transform="translate(-12 -214.87)"/><path class="cls-2" d="M792.67,295.08v18.27h-9.25V296.5c0-5.16-2.31-7.53-6.05-7.53-4.15,0-7.06,2.67-7.06,8.36v16h-9.25V296.5c0-5.16-2.2-7.53-6.05-7.53-4.09,0-7,2.67-7,8.36v16h-9.25V281.44h8.84v3.68a12.93,12.93,0,0,1,10-4.15c4.45,0,8.25,1.72,10.5,5.22A14.35,14.35,0,0,1,779.62,281C787.21,281,792.67,285.35,792.67,295.08Z" transform="translate(-12 -214.87)"/><path class="cls-2" d="M832.42,300H808.28c.89,4,4.27,6.41,9.14,6.41a10.82,10.82,0,0,0,8-3.08l4.92,5.34c-3,3.38-7.42,5.16-13.17,5.16-11,0-18.21-6.94-18.21-16.43S806.26,281,816,281c9.37,0,16.61,6.29,16.61,16.55C832.6,298.23,832.48,299.23,832.42,300Zm-24.26-5.4h15.72a8,8,0,0,0-15.72,0Z" transform="translate(-12 -214.87)"/><path class="cls-2" d="M871.29,269.33v44h-8.84v-3.68c-2.31,2.79-5.7,4.15-10,4.15-9,0-16-6.41-16-16.43s6.94-16.43,16-16.43c3.92,0,7.24,1.25,9.55,3.86V269.33Zm-9.08,28.06c0-5.52-3.56-8.84-8.13-8.84s-8.19,3.32-8.19,8.84,3.56,8.84,8.19,8.84S862.21,302.91,862.21,297.39Z" transform="translate(-12 -214.87)"/><path class="cls-2" d="M878.7,271.83c0-2.91,2.31-5.16,5.75-5.16s5.75,2.14,5.75,5c0,3.08-2.31,5.34-5.75,5.34S878.7,274.73,878.7,271.83Zm1.13,9.61h9.25v31.92h-9.25Z" transform="translate(-12 -214.87)"/><path class="cls-2" d="M895.31,297.39c0-9.61,7.42-16.43,17.8-16.43,6.7,0,12,2.91,14.3,8.13l-7.18,3.86a8,8,0,0,0-7.18-4.39c-4.69,0-8.36,3.26-8.36,8.84s3.68,8.84,8.36,8.84a7.85,7.85,0,0,0,7.18-4.39l7.18,3.92c-2.31,5.1-7.59,8.07-14.3,8.07C902.73,313.83,895.31,307,895.31,297.39Z" transform="translate(-12 -214.87)"/><path class="cls-2" d="M961,295.14v18.21h-8.66v-4c-1.72,2.91-5,4.45-9.73,4.45-7.47,0-11.92-4.15-11.92-9.67s4-9.55,13.7-9.55h7.36c0-4-2.37-6.29-7.36-6.29a15.35,15.35,0,0,0-9.2,3l-3.32-6.47c3.5-2.49,8.66-3.86,13.76-3.86C955.35,281,961,285.47,961,295.14Zm-9.25,8.13V300h-6.35c-4.33,0-5.7,1.6-5.7,3.74,0,2.31,2,3.86,5.22,3.86C948,307.6,950.67,306.17,951.73,303.27Z" transform="translate(-12 -214.87)"/><path class="cls-2" d="M969.36,269.33h9.25v44h-9.25Z" transform="translate(-12 -214.87)"/><path class="cls-2" d="M1004.66,271.83h9.61v41.53h-9.61Z" transform="translate(-12 -214.87)"/><path class="cls-2" d="M1056.09,295.08v18.27h-9.26V296.5c0-5.16-2.37-7.53-6.47-7.53-4.45,0-7.65,2.73-7.65,8.6v15.78h-9.25V281.44h8.84v3.74a14,14,0,0,1,10.56-4.21C1050.4,281,1056.09,285.35,1056.09,295.08Z" transform="translate(-12 -214.87)"/><path class="cls-2" d="M1074.6,282.15h8.19v7.12h-8v24.09h-9.25V289.27h-4.92v-7.12h4.92v-1.42c0-7.18,4.39-11.87,12.34-11.87a13.12,13.12,0,0,1,7.06,1.72l-2.43,6.7a6.48,6.48,0,0,0-3.74-1.13c-2.73,0-4.21,1.48-4.21,4.63Z" transform="translate(-12 -214.87)"/><path class="cls-2" d="M1084.63,297.39c0-9.61,7.42-16.43,17.56-16.43s17.5,6.82,17.5,16.43-7.36,16.43-17.5,16.43S1084.63,307,1084.63,297.39Zm25.69,0c0-5.52-3.5-8.84-8.13-8.84s-8.19,3.32-8.19,8.84,3.56,8.84,8.19,8.84S1110.32,302.91,1110.32,297.39Z" transform="translate(-12 -214.87)"/><path class="cls-2" d="M1145.68,281v8.54c-.77-.06-1.37-.12-2.08-.12-5.1,0-8.48,2.79-8.48,8.9v15.07h-9.25V281.44h8.84v4.21C1137,282.56,1140.75,281,1145.68,281Z" transform="translate(-12 -214.87)"/><path class="cls-2" d="M1205.13,295.08v18.27h-9.25V296.5c0-5.16-2.31-7.53-6.05-7.53-4.15,0-7.06,2.67-7.06,8.36v16h-9.25V296.5c0-5.16-2.2-7.53-6.05-7.53-4.09,0-7,2.67-7,8.36v16h-9.25V281.44H1160v3.68a12.93,12.93,0,0,1,10-4.15c4.45,0,8.25,1.72,10.5,5.22a14.35,14.35,0,0,1,11.51-5.22C1199.67,281,1205.13,285.35,1205.13,295.08Z" transform="translate(-12 -214.87)"/><path class="cls-2" d="M1241.67,295.14v18.21H1233v-4c-1.72,2.91-5,4.45-9.73,4.45-7.48,0-11.92-4.15-11.92-9.67s4-9.55,13.7-9.55h7.36c0-4-2.37-6.29-7.36-6.29a15.35,15.35,0,0,0-9.2,3l-3.32-6.47c3.5-2.49,8.66-3.86,13.76-3.86C1236,281,1241.67,285.47,1241.67,295.14Zm-9.25,8.13V300h-6.35c-4.33,0-5.7,1.6-5.7,3.74,0,2.31,2,3.86,5.22,3.86C1228.68,307.6,1231.35,306.17,1232.42,303.27Z" transform="translate(-12 -214.87)"/><path class="cls-2" d="M1270.63,311.81a13.22,13.22,0,0,1-7.53,2c-7.53,0-11.92-3.86-11.92-11.45V289.27h-4.92v-7.12h4.92v-7.77h9.25v7.77h8v7.12h-8v13c0,2.73,1.48,4.21,4,4.21a6.24,6.24,0,0,0,3.74-1.19Z" transform="translate(-12 -214.87)"/><path class="cls-2" d="M1274.72,271.83c0-2.91,2.31-5.16,5.75-5.16s5.75,2.14,5.75,5c0,3.08-2.31,5.34-5.75,5.34S1274.72,274.73,1274.72,271.83Zm1.13,9.61h9.25v31.92h-9.25Z" transform="translate(-12 -214.87)"/><path class="cls-2" d="M1291.33,297.39c0-9.61,7.42-16.43,17.8-16.43,6.7,0,12,2.91,14.3,8.13l-7.18,3.86a8,8,0,0,0-7.18-4.39c-4.69,0-8.36,3.26-8.36,8.84s3.68,8.84,8.36,8.84a7.85,7.85,0,0,0,7.18-4.39l7.18,3.92c-2.31,5.1-7.59,8.07-14.3,8.07C1298.75,313.83,1291.33,307,1291.33,297.39Z" transform="translate(-12 -214.87)"/><path class="cls-2" d="M1325.68,310.39l3.08-6.64a21.84,21.84,0,0,0,11.09,3.08c4.27,0,5.87-1.13,5.87-2.91,0-5.22-19.28.12-19.28-12.64,0-6.05,5.46-10.32,14.77-10.32,4.39,0,9.26,1,12.28,2.79l-3.08,6.58a18.33,18.33,0,0,0-9.2-2.37c-4.15,0-5.93,1.31-5.93,3,0,5.46,19.28.18,19.28,12.76,0,5.93-5.52,10.14-15.07,10.14C1334.11,313.83,1328.65,312.34,1325.68,310.39Z" transform="translate(-12 -214.87)"/><path class="cls-2" d="M340.05,376.36l-5-4.63a22.22,22.22,0,0,1-13.88,4.63c-9.14,0-15.84-4.75-15.84-11.39,0-5.22,2.79-8.84,9.14-12.4-3-3.14-4.27-5.81-4.27-8.78,0-6.05,5.1-10.2,12.93-10.2,7.18,0,11.92,3.68,11.92,9.55,0,4.27-2.49,7.42-8.13,10.5l7.59,7.06a26.71,26.71,0,0,0,2.08-6.47l7.42,2.31a27.4,27.4,0,0,1-3.8,9.43l4.86,4.51Zm-10.44-9.67-10-9.37c-3.8,2.2-5.16,4.09-5.16,6.64,0,3,2.85,5.16,7.42,5.16A13.28,13.28,0,0,0,329.61,366.69Zm-11-23c0,1.6.65,2.79,3.2,5.28,4.09-2.19,5.4-3.74,5.4-5.64s-1.42-3.44-4.09-3.44C320.3,339.88,318.64,341.48,318.64,343.67Z" transform="translate(-12 -214.87)"/><path class="cls-2" d="M368.12,334.12h9.61v41.53h-9.61Z" transform="translate(-12 -214.87)"/><path class="cls-2" d="M419.55,357.38v18.27H410.3V358.8c0-5.16-2.37-7.53-6.47-7.53-4.45,0-7.65,2.73-7.65,8.6v15.78h-9.25V343.73h8.84v3.74a14,14,0,0,1,10.56-4.21C413.86,343.26,419.55,347.65,419.55,357.38Z" transform="translate(-12 -214.87)"/><path class="cls-2" d="M438.06,344.44h8.19v7.12h-8v24.09H429V351.56h-4.92v-7.12H429V343c0-7.18,4.39-11.87,12.34-11.87a13.12,13.12,0,0,1,7.06,1.72l-2.43,6.7a6.48,6.48,0,0,0-3.74-1.13c-2.73,0-4.21,1.48-4.21,4.63Z" transform="translate(-12 -214.87)"/><path class="cls-2" d="M448.09,359.69c0-9.61,7.42-16.43,17.56-16.43s17.5,6.82,17.5,16.43-7.36,16.43-17.5,16.43S448.09,369.3,448.09,359.69Zm25.69,0c0-5.52-3.5-8.84-8.13-8.84s-8.19,3.32-8.19,8.84,3.56,8.84,8.19,8.84S473.78,365.21,473.78,359.69Z" transform="translate(-12 -214.87)"/><path class="cls-2" d="M509.14,343.26v8.54c-.77-.06-1.36-.12-2.08-.12-5.1,0-8.48,2.79-8.48,8.9v15.07h-9.25V343.73h8.84v4.21C500.42,344.86,504.22,343.26,509.14,343.26Z" transform="translate(-12 -214.87)"/><path class="cls-2" d="M568.59,357.38v18.27h-9.25V358.8c0-5.16-2.31-7.53-6.05-7.53-4.15,0-7.06,2.67-7.06,8.36v16H537V358.8c0-5.16-2.19-7.53-6.05-7.53-4.09,0-7,2.67-7,8.36v16h-9.25V343.73h8.84v3.68a12.93,12.93,0,0,1,10-4.15c4.45,0,8.25,1.72,10.5,5.22a14.35,14.35,0,0,1,11.51-5.22C563.13,343.26,568.59,347.65,568.59,357.38Z" transform="translate(-12 -214.87)"/><path class="cls-2" d="M605.14,357.44v18.21h-8.66v-4c-1.72,2.91-5,4.45-9.73,4.45-7.48,0-11.92-4.15-11.92-9.67s4-9.55,13.7-9.55h7.36c0-4-2.37-6.29-7.36-6.29a15.35,15.35,0,0,0-9.2,3L576,347.11c3.5-2.49,8.66-3.86,13.76-3.86C599.5,343.26,605.14,347.77,605.14,357.44Zm-9.25,8.13V362.3h-6.35c-4.33,0-5.7,1.6-5.7,3.74,0,2.31,2,3.86,5.22,3.86C592.14,369.89,594.81,368.47,595.88,365.56Z" transform="translate(-12 -214.87)"/><path class="cls-2" d="M634.09,374.11a13.23,13.23,0,0,1-7.53,2c-7.53,0-11.92-3.86-11.92-11.45V351.56H609.7v-7.12h4.92v-7.77h9.25v7.77h7.95v7.12h-7.95v13c0,2.73,1.48,4.21,4,4.21a6.24,6.24,0,0,0,3.74-1.19Z" transform="translate(-12 -214.87)"/><path class="cls-2" d="M638.18,334.12c0-2.91,2.31-5.16,5.75-5.16s5.75,2.14,5.75,5c0,3.08-2.31,5.34-5.75,5.34S638.18,337,638.18,334.12Zm1.13,9.61h9.25v31.92h-9.25Z" transform="translate(-12 -214.87)"/><path class="cls-2" d="M654.79,359.69c0-9.61,7.42-16.43,17.56-16.43s17.5,6.82,17.5,16.43-7.36,16.43-17.5,16.43S654.79,369.3,654.79,359.69Zm25.69,0c0-5.52-3.5-8.84-8.13-8.84s-8.19,3.32-8.19,8.84,3.56,8.84,8.19,8.84S680.48,365.21,680.48,359.69Z" transform="translate(-12 -214.87)"/><path class="cls-2" d="M728.66,357.38v18.27H719.4V358.8c0-5.16-2.37-7.53-6.47-7.53-4.45,0-7.65,2.73-7.65,8.6v15.78H696V343.73h8.84v3.74a14,14,0,0,1,10.56-4.21C723,343.26,728.66,347.65,728.66,357.38Z" transform="translate(-12 -214.87)"/><path class="cls-2" d="M763.07,342H749.78v-7.83H786V342H772.68v33.7h-9.61Z" transform="translate(-12 -214.87)"/><path class="cls-2" d="M818.3,362.3H794.16c.89,4,4.27,6.41,9.14,6.41a10.82,10.82,0,0,0,8-3.08l4.92,5.34c-3,3.38-7.42,5.16-13.17,5.16-11,0-18.21-6.94-18.21-16.43s7.3-16.43,17-16.43c9.37,0,16.61,6.29,16.61,16.55C818.48,360.52,818.36,361.53,818.3,362.3ZM794,356.9h15.72a8,8,0,0,0-15.72,0Z" transform="translate(-12 -214.87)"/><path class="cls-2" d="M822.28,359.69c0-9.61,7.42-16.43,17.8-16.43,6.7,0,12,2.91,14.3,8.13l-7.18,3.86a8,8,0,0,0-7.18-4.39c-4.69,0-8.36,3.26-8.36,8.84s3.68,8.84,8.36,8.84a7.85,7.85,0,0,0,7.18-4.39l7.18,3.92c-2.31,5.1-7.59,8.07-14.3,8.07C829.7,376.12,822.28,369.3,822.28,359.69Z" transform="translate(-12 -214.87)"/><path class="cls-2" d="M892.11,357.38v18.27h-9.25V358.8c0-5.16-2.37-7.53-6.47-7.53-4.45,0-7.65,2.73-7.65,8.6v15.78h-9.25v-44h9.25v15.42a14,14,0,0,1,10.14-3.8C886.41,343.26,892.11,347.65,892.11,357.38Z" transform="translate(-12 -214.87)"/><path class="cls-2" d="M933.11,357.38v18.27h-9.26V358.8c0-5.16-2.37-7.53-6.47-7.53-4.45,0-7.65,2.73-7.65,8.6v15.78h-9.25V343.73h8.84v3.74a14,14,0,0,1,10.56-4.21C927.41,343.26,933.11,347.65,933.11,357.38Z" transform="translate(-12 -214.87)"/><path class="cls-2" d="M939.45,359.69c0-9.61,7.42-16.43,17.56-16.43s17.5,6.82,17.5,16.43-7.36,16.43-17.5,16.43S939.45,369.3,939.45,359.69Zm25.69,0c0-5.52-3.5-8.84-8.13-8.84s-8.19,3.32-8.19,8.84,3.56,8.84,8.19,8.84S965.14,365.21,965.14,359.69Z" transform="translate(-12 -214.87)"/><path class="cls-2" d="M980.69,331.63h9.25v44h-9.25Z" transform="translate(-12 -214.87)"/><path class="cls-2" d="M996.17,359.69c0-9.61,7.42-16.43,17.56-16.43s17.5,6.82,17.5,16.43-7.36,16.43-17.5,16.43S996.17,369.3,996.17,359.69Zm25.69,0c0-5.52-3.5-8.84-8.13-8.84s-8.19,3.32-8.19,8.84,3.56,8.84,8.19,8.84S1021.86,365.21,1021.86,359.69Z" transform="translate(-12 -214.87)"/><path class="cls-2" d="M1070.33,343.73v26.58c0,11.87-6.41,17.32-17.92,17.32-6.05,0-11.92-1.48-15.66-4.39l3.68-6.64a19.08,19.08,0,0,0,11.27,3.62c6.53,0,9.37-3,9.37-8.72v-1.36c-2.43,2.67-5.93,4-10.08,4-8.84,0-16-6.11-16-15.42s7.12-15.42,16-15.42c4.45,0,8.13,1.48,10.56,4.57v-4.09Zm-9.14,15c0-4.69-3.5-7.83-8.37-7.83s-8.42,3.14-8.42,7.83,3.56,7.83,8.42,7.83S1061.2,363.37,1061.2,358.68Z" transform="translate(-12 -214.87)"/><path class="cls-2" d="M1110.62,343.73l-14.42,33.88c-3.08,7.71-7.47,10-13.23,10-3.26,0-6.82-1.07-8.9-2.91l3.38-6.59a8.21,8.21,0,0,0,5.22,2c2.55,0,4-1.13,5.22-4l.12-.3-13.82-32.15h9.55l9,21.65,9-21.65Z" transform="translate(-12 -214.87)"/><path class="cls-2" d="M234.49,295.55,190,215.46H29.11A17.14,17.14,0,0,0,12,232.62V358.49a17.14,17.14,0,0,0,17.11,17.16H190Z" transform="translate(-12 -214.87)"/><path class="cls-1" d="M230,223.81a17.37,17.37,0,0,0-14.88-8.35H201.85l45.09,80.09-45.09,80.09h13.31A17.37,17.37,0,0,0,230,367.3l40-71.74Z" transform="translate(-12 -214.87)"/><rect class="cls-3" x="94.93" y="45.09" width="11.87" height="71.2"/><polygon class="cls-3" points="71.19 45.09 71.19 97.3 38.56 45.09 26.7 45.09 26.7 116.28 38.56 116.28 38.56 64.07 71.19 116.28 83.06 116.28 83.06 45.09 71.19 45.09"/><polygon class="cls-3" points="163.16 45.09 163.16 74.75 130.53 74.75 130.53 45.09 118.66 45.09 118.66 116.28 130.53 116.28 130.53 86.62 163.16 86.62 163.16 116.28 175.02 116.28 175.02 45.09 163.16 45.09"/></svg>